<?xml version="1.0" encoding="utf-8"?>
<!-- Generator: Adobe Illustrator 21.1.0, SVG Export Plug-In . SVG Version: 6.00 Build 0)  -->
<svg version="1.1" id="Camada_1" xmlns="http://www.w3.org/2000/svg" xmlns:xlink="http://www.w3.org/1999/xlink" x="0px" y="0px"
	 viewBox="0 0 512 510.9" style="enable-background:new 0 0 512 510.9;" xml:space="preserve">
<style type="text/css">
	.st0{fill:#FEC92E;}
	.st1{fill:#FFFFFF;}
</style>
<g>
	<path class="st0" d="M246,0c6.7,0,13.3,0,20,0c2.5,0.4,4.9,0.8,7.4,1.1c11.4,1.5,22.9,2.1,34.1,4.5
		c76.3,16.8,133.9,59.3,172.5,127.2c15.4,27.2,25,56.5,29,87.5c1.2,8.9,2,17.8,3.1,26.7c0,6.3,0,12.7,0,19c-1,8.7-1.8,17.5-3.1,26.2
		c-7.6,53.6-30.1,100.1-67.2,139.3c-40.8,43-90.7,69-149.5,77.5c-8.7,1.3-17.5,2.1-26.2,3.1c-6.7,0-13.3,0-20,0
		c-2.1-0.4-4.2-0.8-6.4-1.1c-9.7-1.1-19.6-1.6-29.2-3.4c-63.6-12.1-115.7-43.4-155.8-94.2C26.5,377.7,9.3,337.2,3.1,292.2
		C1.9,283.8,1,275.4,0,267c0-7,0-14,0-21c0.4-2.4,0.8-4.9,1.1-7.3c1.5-11.4,2.1-22.9,4.5-34.1C20.1,137,55.9,83.5,112.8,44.3
		C145.2,22,181.2,8.2,220.3,3C228.8,1.9,237.4,1,246,0z"/>
	<g>
		<path class="st1" d="M306.4,357l-25.8-44.7c-10.5-17.1-17.1-28.2-23.4-39.9h-0.6c-5.7,11.7-11.4,22.5-21.9,40.2L210.4,357h-30
			l61.8-102.3l-59.4-99.9h30.3l26.7,47.4c7.5,13.2,13.2,23.4,18.6,34.2h0.9c5.7-12,10.8-21.3,18.3-34.2l27.6-47.4h30l-61.5,98.4
			l63,103.8H306.4z"/>
	</g>
</g>
</svg>
