<?xml version="1.0" encoding="utf-8"?>
<!-- Generator: Adobe Illustrator 21.1.0, SVG Export Plug-In . SVG Version: 6.00 Build 0)  -->
<svg version="1.1" id="Camada_1" xmlns="http://www.w3.org/2000/svg" xmlns:xlink="http://www.w3.org/1999/xlink" x="0px" y="0px"
	 viewBox="0 0 512 510.9" style="enable-background:new 0 0 512 510.9;" xml:space="preserve">
<style type="text/css">
	.st0{fill:#FEC92E;}
	.st1{fill:#FFFFFF;}
</style>
<g>
	<path class="st0" d="M246,0c6.7,0,13.3,0,20,0c2.5,0.4,4.9,0.8,7.4,1.1c11.4,1.5,22.9,2.1,34.1,4.5
		c76.3,16.8,133.9,59.3,172.5,127.2c15.4,27.2,25,56.5,29,87.5c1.2,8.9,2,17.8,3.1,26.7c0,6.3,0,12.7,0,19c-1,8.7-1.8,17.5-3.1,26.2
		c-7.6,53.6-30.1,100.1-67.2,139.3c-40.8,43-90.7,69-149.5,77.5c-8.7,1.3-17.5,2.1-26.2,3.1c-6.7,0-13.3,0-20,0
		c-2.1-0.4-4.2-0.8-6.4-1.1c-9.7-1.1-19.6-1.6-29.2-3.4c-63.6-12.1-115.7-43.4-155.8-94.2C26.5,377.7,9.3,337.2,3.1,292.2
		C1.9,283.8,1,275.4,0,267c0-7,0-14,0-21c0.4-2.4,0.8-4.9,1.1-7.3c1.5-11.4,2.1-22.9,4.5-34.1C20.1,137,55.9,83.5,112.8,44.3
		C145.2,22,181.2,8.2,220.3,3C228.8,1.9,237.4,1,246,0z"/>
</g>
<g>
	<path class="st1" d="M255.2,366.4v-27.2c-15.6-0.3-31.7-5.1-41.1-11.8l6.5-18c9.7,6.5,23.7,11.6,38.7,11.6c19.1,0,32-11,32-26.4
		c0-14.8-10.5-23.9-30.4-32c-27.4-10.8-44.4-23.1-44.4-46.5c0-22.3,15.9-39.3,40.6-43.3v-27.2h16.7v26.1c16.1,0.5,27.2,4.8,35,9.4
		l-6.7,17.7c-5.6-3.2-16.7-9.1-33.9-9.1c-20.7,0-28.5,12.4-28.5,23.1c0,14,10,21,33.3,30.7c27.7,11.3,41.7,25.3,41.7,49.2
		c0,21.2-14.8,41.1-42.5,45.7v28H255.2z"/>
</g>
</svg>
