<?xml version="1.0" encoding="utf-8"?>
<!-- Generator: Adobe Illustrator 21.1.0, SVG Export Plug-In . SVG Version: 6.00 Build 0)  -->
<svg version="1.1" id="Camada_1" xmlns="http://www.w3.org/2000/svg" xmlns:xlink="http://www.w3.org/1999/xlink" x="0px" y="0px"
	 viewBox="0 0 309.7 388.2" style="enable-background:new 0 0 309.7 388.2;" xml:space="preserve">
<style type="text/css">
	.st0{opacity:0;fill-rule:evenodd;clip-rule:evenodd;}
	.st1{fill:#666666;}
	.st2{font-family:'Montserrat-Bold';}
	.st3{font-size:12px;}
	.st4{clip-path:url(#SVGID_2_);}
	.st5{clip-path:url(#SVGID_6_);}
	.st6{clip-path:url(#SVGID_10_);}
	.st7{clip-path:url(#SVGID_14_);}
	.st8{clip-path:url(#SVGID_18_);}
	.st9{clip-path:url(#SVGID_22_);}
	.st10{clip-path:url(#SVGID_26_);}
	.st11{clip-path:url(#SVGID_30_);}
</style>
<g>
	<rect x="-28.9" y="162" class="st0" width="198.9" height="58.7"/>
	<text transform="matrix(1 0 0 1 21.7866 180.2316)" class="st1 st2 st3">Alexia Gabrielly</text>
	<rect x="15.9" y="46.9" class="st0" width="105.4" height="105.2"/>
	<g>
		<defs>
			<rect id="SVGID_1_" x="15.9" y="46.9" width="105.4" height="105.2"/>
		</defs>
		<clipPath id="SVGID_2_">
			<use xlink:href="#SVGID_1_"  style="overflow:visible;"/>
		</clipPath>
		<g class="st4">
			<defs>
				<rect id="SVGID_3_" x="15.9" y="46.9" width="105.4" height="105.2"/>
			</defs>
			<clipPath id="SVGID_4_">
				<use xlink:href="#SVGID_3_"  style="overflow:visible;"/>
			</clipPath>
			<g style="clip-path:url(#SVGID_4_);">
				
					<image style="overflow:visible;" width="496" height="495" xlink:href="1C8103AD4165A207.png"  transform="matrix(0.2124 0 0 0.2124 15.9313 46.9403)">
				</image>
			</g>
		</g>
	</g>
	<rect x="-17" y="-1.9" class="st0" width="166" height="163.9"/>
	<g>
		<defs>
			<rect id="SVGID_5_" x="-17" y="-1.9" width="166" height="163.9"/>
		</defs>
		<clipPath id="SVGID_6_">
			<use xlink:href="#SVGID_5_"  style="overflow:visible;"/>
		</clipPath>
		<g class="st5">
			<defs>
				<rect id="SVGID_7_" x="-17" y="-1.9" width="166" height="163.9"/>
			</defs>
			<clipPath id="SVGID_8_">
				<use xlink:href="#SVGID_7_"  style="overflow:visible;"/>
			</clipPath>
			<g transform="matrix(1 0 0 1 0 -1.192093e-07)" style="clip-path:url(#SVGID_8_);">
				
					<image style="overflow:visible;" width="388" height="383" xlink:href="1C8103AD4165A205.png"  transform="matrix(0.4279 0 0 0.4279 -17.0411 -1.915)">
				</image>
			</g>
		</g>
	</g>
</g>
<g>
	<rect x="150.2" y="364.1" class="st0" width="173.2" height="58.7"/>
	<text transform="matrix(1 0 0 1 203.1219 382.3387)" class="st1 st2 st3">Laís Sayuri</text>
	<rect x="186.6" y="244" class="st0" width="105.4" height="107"/>
	<g>
		<defs>
			<rect id="SVGID_9_" x="186.6" y="244" width="105.4" height="107"/>
		</defs>
		<clipPath id="SVGID_10_">
			<use xlink:href="#SVGID_9_"  style="overflow:visible;"/>
		</clipPath>
		<g class="st6">
			<defs>
				<rect id="SVGID_11_" x="186.6" y="244" width="105.4" height="107"/>
			</defs>
			<clipPath id="SVGID_12_">
				<use xlink:href="#SVGID_11_"  style="overflow:visible;"/>
			</clipPath>
			<g transform="matrix(1 0 0 1 0 1.525879e-05)" style="clip-path:url(#SVGID_12_);">
				
					<image style="overflow:visible;" width="926" height="934" xlink:href="1C8103AD4165A20B.jpg"  transform="matrix(0.1138 0 0 0.1145 186.6205 243.9589)">
				</image>
			</g>
		</g>
	</g>
	<rect x="153.8" y="196.5" class="st0" width="166" height="163.9"/>
	<g>
		<defs>
			<rect id="SVGID_13_" x="153.8" y="196.5" width="166" height="163.9"/>
		</defs>
		<clipPath id="SVGID_14_">
			<use xlink:href="#SVGID_13_"  style="overflow:visible;"/>
		</clipPath>
		<g class="st7">
			<defs>
				<rect id="SVGID_15_" x="153.8" y="196.5" width="166" height="163.9"/>
			</defs>
			<clipPath id="SVGID_16_">
				<use xlink:href="#SVGID_15_"  style="overflow:visible;"/>
			</clipPath>
			<g style="clip-path:url(#SVGID_16_);">
				
					<image style="overflow:visible;" width="388" height="383" xlink:href="1C8103AD4165A20D.png"  transform="matrix(0.4279 0 0 0.4279 153.7623 196.4769)">
				</image>
			</g>
		</g>
	</g>
</g>
<g>
	<rect x="-15.2" y="364.1" class="st0" width="173.2" height="58.7"/>
	<text transform="matrix(1 0 0 1 26.1026 382.3403)" class="st1 st2 st3">Jennifer Costa</text>
	<rect x="15" y="244.4" class="st0" width="107.5" height="107"/>
	<g>
		<defs>
			<rect id="SVGID_17_" x="15" y="244.4" width="107.5" height="107"/>
		</defs>
		<clipPath id="SVGID_18_">
			<use xlink:href="#SVGID_17_"  style="overflow:visible;"/>
		</clipPath>
		<g class="st8">
			<defs>
				<rect id="SVGID_19_" x="15" y="244.4" width="107.5" height="107"/>
			</defs>
			<clipPath id="SVGID_20_">
				<use xlink:href="#SVGID_19_"  style="overflow:visible;"/>
			</clipPath>
			<g style="clip-path:url(#SVGID_20_);">
				
					<image style="overflow:visible;" width="374" height="372" xlink:href="1C8103AD4165A20F.jpg"  transform="matrix(0.2875 0 0 0.2875 14.9744 244.4267)">
				</image>
			</g>
		</g>
	</g>
	<rect x="-16.8" y="196.5" class="st0" width="166" height="163.9"/>
	<g>
		<defs>
			<rect id="SVGID_21_" x="-16.8" y="196.5" width="166" height="163.9"/>
		</defs>
		<clipPath id="SVGID_22_">
			<use xlink:href="#SVGID_21_"  style="overflow:visible;"/>
		</clipPath>
		<g class="st9">
			<defs>
				<rect id="SVGID_23_" x="-16.8" y="196.5" width="166" height="163.9"/>
			</defs>
			<clipPath id="SVGID_24_">
				<use xlink:href="#SVGID_23_"  style="overflow:visible;"/>
			</clipPath>
			<g style="clip-path:url(#SVGID_24_);">
				
					<image style="overflow:visible;" width="388" height="383" xlink:href="1C8103AD4165A20C.png"  transform="matrix(0.4279 0 0 0.4279 -16.8315 196.4769)">
				</image>
			</g>
		</g>
	</g>
</g>
<g>
	<rect x="134.5" y="161.9" class="st0" width="216.2" height="58.7"/>
	<text transform="matrix(1 0 0 1 186.4953 180.1437)" class="st1 st2 st3">Caroline Pandolfe</text>
	<rect x="186" y="45.8" class="st0" width="107.5" height="106.7"/>
	<g>
		<defs>
			<rect id="SVGID_25_" x="186" y="45.8" width="107.5" height="106.7"/>
		</defs>
		<clipPath id="SVGID_26_">
			<use xlink:href="#SVGID_25_"  style="overflow:visible;"/>
		</clipPath>
		<g class="st10">
			<defs>
				<rect id="SVGID_27_" x="186" y="45.8" width="107.5" height="106.7"/>
			</defs>
			<clipPath id="SVGID_28_">
				<use xlink:href="#SVGID_27_"  style="overflow:visible;"/>
			</clipPath>
			<g transform="matrix(1 0 0 1 1.525879e-05 0)" style="clip-path:url(#SVGID_28_);">
				
					<image style="overflow:visible;" width="617" height="612" xlink:href="1C8103AD4165A204.jpg"  transform="matrix(0.1743 0 0 0.1743 186.0033 45.7761)">
				</image>
			</g>
		</g>
	</g>
	<rect x="154.5" y="-2" class="st0" width="166" height="163.9"/>
	<g>
		<defs>
			<rect id="SVGID_29_" x="154.5" y="-2" width="166" height="163.9"/>
		</defs>
		<clipPath id="SVGID_30_">
			<use xlink:href="#SVGID_29_"  style="overflow:visible;"/>
		</clipPath>
		<g class="st11">
			<defs>
				<rect id="SVGID_31_" x="154.5" y="-2" width="166" height="163.9"/>
			</defs>
			<clipPath id="SVGID_32_">
				<use xlink:href="#SVGID_31_"  style="overflow:visible;"/>
			</clipPath>
			<g style="clip-path:url(#SVGID_32_);">
				
					<image style="overflow:visible;" width="388" height="383" xlink:href="1C8103AD4165A204.png"  transform="matrix(0.4279 0 0 0.4279 154.4754 -2.0013)">
				</image>
			</g>
		</g>
	</g>
</g>
</svg>
